Filename:
Toy Story 3 2010 BRRip XVID AC3-lOVE
 
http://www.imdb.com/title/tt0435761/

Video
ID                               : 0
Format                           : MPEG-4 Visual
Format profile                   : AdvancedSimple@L5
Format settings, BVOP            : Yes
Format settings, QPel            : No
Format settings, GMC             : No warppoints
Format settings, Matrix          : Default (H.263)
Muxing mode                      : Packed bitstream
Codec ID                         : XVID
Codec ID/Hint                    : XviD
Duration                         : 1h 42mn
Bit rate                         : 1 587 Kbps
Width                            : 720 pixels
Height                           : 400 pixels
Display aspect ratio             : 16:9
Frame rate                       : 23.976 fps
Resolution                       : 24 bits
Colorimetry                      : 4:2:0
Scan type                        : Progressive
Bits/(Pixel*Frame)               : 0.230
Stream size                      : 1.14 GiB (78%)
Writing library                  : XviD 1.2.1 (UTC 2008-12-04)

Audio
ID                               : 1
Format                           : AC-3
Format/Info                      : Audio Coding 3
Codec ID                         : 2000
Duration                         : 1h 42mn
Bit rate mode                    : Constant
Bit rate                         : 448 Kbps
Channel(s)                       : 6 channels
Channel positions                : Front: L C R, Surround: L R, LFE
Sampling rate                    : 48.0 KHz
Stream size                      : 329 MiB (22%)
Alignment                        : Split accross interleaves
Interleave, duration             : 64 ms (1.53 video frames)
Interleave, preload duration     : 500 ms

Hardcoded english subtitles (For the Spanish parts only)